<svg width="41" height="42" viewBox="0 0 41 42" fill="none" xmlns="http://www.w3.org/2000/svg">
<rect width="41" height="42" fill="black"/>
<path d="M29.7532 14.728C28.0606 13.384 26.0294 12.712 23.8854 12.6L23.5468 12.936C25.4651 13.384 27.1578 14.2799 28.7376 15.512C26.8193 14.504 24.6752 13.832 22.4183 13.608C21.7413 13.496 21.177 13.496 20.5 13.496C19.823 13.496 19.2587 13.496 18.5817 13.608C16.3248 13.832 14.1807 14.504 12.2624 15.512C13.8422 14.2799 15.5349 13.384 17.4532 12.936L17.1147 12.6C14.9706 12.712 12.9394 13.384 11.2468 14.728C9.32845 18.312 8.31286 22.344 8.20001 26.4879C9.89265 28.28 12.2624 29.4 14.745 29.4C14.745 29.4 15.5349 28.504 16.0991 27.7199C14.6321 27.384 13.278 26.5999 12.3752 25.368C13.1651 25.8159 13.955 26.264 14.745 26.5999C15.7606 27.048 16.7762 27.272 17.7918 27.496C18.6945 27.6079 19.5973 27.7199 20.5 27.7199C21.4028 27.7199 22.3055 27.6079 23.2082 27.496C24.2238 27.272 25.2394 27.048 26.255 26.5999C27.045 26.264 27.8349 25.8159 28.6248 25.368C27.722 26.5999 26.3679 27.384 24.901 27.7199C25.4651 28.504 26.255 29.4 26.255 29.4C28.7376 29.4 31.1074 28.28 32.8 26.4879C32.6872 22.344 31.6716 18.312 29.7532 14.728ZM16.7762 24.4719C15.6477 24.4719 14.6321 23.4639 14.6321 22.232C14.6321 21 15.6477 19.992 16.7762 19.992C17.9046 19.992 18.9202 21 18.9202 22.232C18.9202 23.4639 17.9046 24.4719 16.7762 24.4719ZM24.2238 24.4719C23.0954 24.4719 22.0798 23.4639 22.0798 22.232C22.0798 21 23.0954 19.992 24.2238 19.992C25.3523 19.992 26.3679 21 26.3679 22.232C26.3679 23.4639 25.3523 24.4719 24.2238 24.4719Z" fill="white"/>
</svg>
