<svg width="41" height="42" viewBox="0 0 41 42" fill="none" xmlns="http://www.w3.org/2000/svg">
<path d="M41 0H0V42H41V0Z" fill="black"/>
<path fill-rule="evenodd" clip-rule="evenodd" d="M20.4687 10.752C14.8265 10.752 10.25 15.44 10.25 21.2198C10.25 25.8437 13.1965 29.7611 17.2087 31.174C17.7102 31.2382 17.8983 30.9171 17.8983 30.6602C17.8983 30.4033 17.8983 29.7611 17.8983 28.862C15.0772 29.5042 14.4503 27.4492 14.4503 27.4492C14.0115 26.229 13.3219 25.9079 13.3219 25.9079C12.3815 25.2657 13.3846 25.2657 13.3846 25.2657C14.3876 25.3299 14.9518 26.3575 14.9518 26.3575C15.8922 27.963 17.3341 27.5134 17.8983 27.2565C17.961 26.5501 18.2745 26.1006 18.5252 25.8437C16.2683 25.5868 13.8861 24.6877 13.8861 20.6419C13.8861 19.4859 14.2622 18.5868 14.9518 17.8162C14.8891 17.6235 14.513 16.5318 15.0772 15.1189C15.0772 15.1189 15.9549 14.862 17.8983 16.2107C18.7133 15.9538 19.591 15.8896 20.4687 15.8896C21.3463 15.8896 22.224 16.018 23.039 16.2107C24.9824 14.862 25.8601 15.1189 25.8601 15.1189C26.4243 16.5318 26.0482 17.6235 25.9855 17.8804C26.6124 18.5868 27.0512 19.5501 27.0512 20.7061C27.0512 24.752 24.669 25.5868 22.4121 25.8437C22.7882 26.1648 23.1017 26.807 23.1017 27.7703C23.1017 29.1831 23.1017 30.2749 23.1017 30.6602C23.1017 30.9171 23.2898 31.2382 23.7913 31.174C27.8662 29.7611 30.75 25.8437 30.75 21.2198C30.6873 15.44 26.1109 10.752 20.4687 10.752Z" fill="white"/>
</svg>
