<svg width="41" height="42" viewBox="0 0 41 42" fill="none" xmlns="http://www.w3.org/2000/svg">
<rect width="41" height="42" fill="black"/>
<path d="M21.5071 28.35C13.8026 28.35 9.40808 22.832 9.22498 13.65H13.0843C13.211 20.3894 16.0562 23.244 18.3098 23.8326V13.65H21.9437V19.4623C24.1691 19.2122 26.5072 16.5635 27.296 13.65H30.9299C30.6327 15.1611 30.0402 16.5918 29.1895 17.8527C28.3389 19.1135 27.2483 20.1775 25.9861 20.978C27.395 21.7094 28.6395 22.7446 29.6373 24.0154C30.6352 25.2861 31.3638 26.7635 31.775 28.35H27.7749C27.4057 26.972 26.6555 25.7385 25.6182 24.804C24.5809 23.8695 23.3027 23.2757 21.9437 23.0969V28.35H21.5071V28.35Z" fill="white"/>
</svg>
